<svg width="318" height="131" viewBox="0 0 318 131" fill="none" xmlns="http://www.w3.org/2000/svg">
<path d="M306 50.0667L310.947 53.6667L309.053 47.8534L314 44.3334H307.933L306 38.3334L304.067 44.3334H298L302.947 47.8534L301.053 53.6667L306 50.0667Z" fill="black"/>
<path d="M22 9.24L14.81 8.62L12 2L9.19 8.63L2 9.24L7.46 13.97L5.82 21L12 17.27L18.18 21L16.55 13.97L22 9.24ZM12 15.4V6.1L13.71 10.14L18.09 10.52L14.77 13.4L15.77 17.68L12 15.4Z" fill="black"/>
<path d="M100 71.0667L104.947 74.6667L103.053 68.8534L108 65.3334H101.933L100 59.3334L98.0667 65.3334H92L96.9467 68.8534L95.0533 74.6667L100 71.0667Z" fill="black"/>
<path d="M190 36.27L196.18 40L194.54 32.97L200 28.24L192.81 27.63L190 21L187.19 27.63L180 28.24L185.46 32.97L183.82 40L190 36.27Z" fill="#F23E3D"/>
<path d="M22 116.24L14.81 115.62L12 109L9.19 115.63L2 116.24L7.46 120.97L5.82 128L12 124.27L18.18 128L16.55 120.97L22 116.24ZM12 122.4V113.1L13.71 117.14L18.09 117.52L14.77 120.4L15.77 124.68L12 122.4Z" fill="#F23E3D"/>
</svg>
