<?xml version="1.0" encoding="utf-8"?>
<!-- Generator: Adobe Illustrator 23.0.0, SVG Export Plug-In . SVG Version: 6.00 Build 0)  -->
<svg version="1.1" id="Layer_1" xmlns="http://www.w3.org/2000/svg" xmlns:xlink="http://www.w3.org/1999/xlink" x="0px" y="0px"
	 viewBox="0 0 50 12" style="enable-background:new 0 0 50 12;" xml:space="preserve">
<style type="text/css">
	.st0{fill:#ED2024;}
</style>
<g>
	<path d="M1.2,6.6h3.4c0.1,0,0.2,0,0.2,0c0.1,0,0.2,0,0.3,0c0.1,0,0.3,0.1,0.4,0.1c0.1,0,0.2,0.1,0.3,0.2C6,7,6,7.1,6.1,7.3
		c0.1,0.1,0.1,0.3,0.1,0.4c0,0.2,0,0.4-0.1,0.6C6,9,5.6,9.5,4.9,9.9l0.6,1.3l-1.8,0l-0.5-1.1H1.9l-0.3,1.1H0.1L1.2,6.6z M3.9,8.8
		c0.4,0,0.6-0.1,0.7-0.4C4.7,8.1,4.5,8,4.1,8H2.4L2.2,8.8H3.9z"/>
	<path d="M9.9,6.5c0.4,0,0.8,0,1.1,0.1c0.3,0,0.6,0.1,0.8,0.2c0.2,0.1,0.4,0.3,0.6,0.4c0.1,0.2,0.2,0.4,0.2,0.7c0,0.3,0,0.6-0.1,0.9
		c-0.1,0.4-0.2,0.7-0.4,0.9c-0.2,0.3-0.3,0.5-0.5,0.7c-0.2,0.2-0.5,0.3-0.7,0.4c-0.3,0.1-0.6,0.2-0.9,0.2c-0.3,0-0.7,0.1-1.2,0.1
		c-1.1,0-1.8-0.2-2.2-0.6c-0.4-0.4-0.5-1-0.3-1.8C6.5,8,6.9,7.5,7.5,7.1C8.1,6.7,8.9,6.5,9.9,6.5z M9.1,10c0.5,0,0.8-0.1,1.1-0.3
		c0.3-0.2,0.5-0.5,0.6-0.9c0.1-0.4,0-0.7-0.2-0.8c-0.2-0.2-0.6-0.3-1-0.3c-0.2,0-0.4,0-0.6,0.1C8.8,7.9,8.7,7.9,8.5,8
		C8.4,8.1,8.3,8.3,8.2,8.4C8.1,8.5,8,8.7,8,8.9c-0.1,0.3,0,0.6,0.1,0.8C8.3,9.9,8.6,10,9.1,10z"/>
	<path d="M17.3,6.6l0.9,4.6h-1.8l-0.1-0.8H14l-0.5,0.8h-1.8l3.2-4.6H17.3z M14.9,9.1H16l-0.3-1.2L14.9,9.1z"/>
	<path d="M21.3,11.2h-3.2l1.2-4.6h3.1c0.3,0,0.6,0,0.8,0c0.2,0,0.4,0.1,0.6,0.2c0.2,0.1,0.4,0.2,0.5,0.4c0.1,0.2,0.2,0.4,0.2,0.7
		c0,0.3,0,0.6-0.1,1c-0.1,0.3-0.2,0.6-0.4,0.9c-0.2,0.3-0.4,0.5-0.6,0.7c-0.2,0.2-0.5,0.3-0.7,0.4c-0.3,0.1-0.5,0.2-0.8,0.2
		C21.8,11.1,21.6,11.2,21.3,11.2z M21.5,9.9c0.2,0,0.5,0,0.7-0.1c0.2-0.1,0.4-0.2,0.5-0.4c0.1-0.2,0.2-0.3,0.3-0.5
		C23,8.6,23,8.3,22.9,8.1c-0.1-0.2-0.4-0.3-0.8-0.3h-1.5L20,9.9H21.5z"/>
	<path class="st0" d="M28.3,6.6c0.4,0,0.8,0,1,0c0.3,0,0.5,0.1,0.8,0.1c0.2,0.1,0.4,0.1,0.5,0.2c0.1,0.1,0.2,0.2,0.3,0.3
		c0.1,0.1,0.1,0.3,0.1,0.4c0,0.2,0,0.4-0.1,0.6h-1.6c0-0.1,0-0.1,0-0.2c0,0-0.1-0.1-0.1-0.1c-0.1,0-0.2-0.1-0.4-0.1
		c-0.2,0-0.4,0-0.7,0c-0.4,0-0.7,0-0.9,0c-0.2,0-0.3,0-0.4,0.1c-0.1,0-0.1,0.1-0.1,0.1c0,0.1,0,0.1,0.1,0.1c0.1,0,0.4,0.1,1,0.1
		c0,0,0,0,0,0C29,8.4,29.7,8.5,30,8.6c0.4,0.1,0.6,0.3,0.7,0.5c0,0.2,0,0.4-0.1,0.7c-0.1,0.2-0.1,0.4-0.2,0.5
		c-0.1,0.1-0.2,0.3-0.3,0.4c-0.1,0.1-0.2,0.2-0.4,0.3c-0.2,0.1-0.4,0.1-0.6,0.2c-0.3,0-0.5,0.1-0.8,0.1c-0.3,0-0.7,0-1.2,0
		c-0.3,0-0.6,0-0.8,0c-0.2,0-0.4,0-0.6,0c-0.2,0-0.3-0.1-0.5-0.1c-0.1,0-0.2-0.1-0.3-0.1c-0.1-0.1-0.2-0.1-0.2-0.2
		c0-0.1-0.1-0.2-0.1-0.3c0-0.1,0-0.2,0-0.4c0-0.1,0.1-0.3,0.1-0.5h1.6c0,0.1,0,0.1,0,0.2c0,0,0.1,0.1,0.1,0.1c0.1,0,0.2,0,0.4,0.1
		c0.2,0,0.4,0,0.7,0c0,0,0.1,0,0.2,0c0.5,0,0.8,0,0.9,0c0.1,0,0.2-0.1,0.2-0.2c0-0.1,0-0.1-0.1-0.1c-0.1,0-0.3,0-0.6-0.1
		c-0.2,0-0.4,0-0.6,0c-0.3,0-0.4,0-0.6-0.1c-0.1,0-0.3,0-0.5-0.1c-0.2,0-0.3,0-0.4-0.1c-0.1,0-0.2-0.1-0.3-0.1
		c-0.1,0-0.2-0.1-0.3-0.1c-0.1,0-0.1-0.1-0.2-0.2c-0.1-0.1-0.1-0.1-0.1-0.2c0-0.1,0-0.2,0-0.3c0-0.1,0-0.2,0.1-0.3
		c0-0.2,0.1-0.3,0.1-0.4c0.1-0.1,0.1-0.2,0.2-0.3c0.1-0.1,0.1-0.2,0.2-0.3C25.7,7,25.8,7,25.9,6.9c0.1-0.1,0.2-0.1,0.3-0.1
		c0.1,0,0.3-0.1,0.4-0.1c0.1,0,0.3,0,0.5-0.1c0.2,0,0.4,0,0.5,0C27.9,6.6,28.1,6.6,28.3,6.6z"/>
	<path class="st0" d="M47.3,6.6c0.4,0,0.8,0,1,0c0.3,0,0.5,0.1,0.8,0.1c0.2,0.1,0.4,0.1,0.5,0.2c0.1,0.1,0.2,0.2,0.3,0.3
		c0.1,0.1,0.1,0.3,0.1,0.4c0,0.2,0,0.4-0.1,0.6h-1.6c0-0.1,0-0.1,0-0.2c0,0-0.1-0.1-0.1-0.1c-0.1,0-0.2-0.1-0.4-0.1
		c-0.2,0-0.4,0-0.7,0c-0.4,0-0.7,0-0.9,0s-0.3,0-0.4,0.1c-0.1,0-0.1,0.1-0.1,0.1c0,0.1,0,0.1,0.1,0.1c0.1,0,0.4,0.1,1,0.1
		c0,0,0,0,0,0C48,8.4,48.7,8.5,49,8.6c0.4,0.1,0.6,0.3,0.6,0.5c0,0.2,0,0.4-0.1,0.7c-0.1,0.2-0.1,0.4-0.2,0.5
		c-0.1,0.1-0.2,0.3-0.3,0.4c-0.1,0.1-0.3,0.2-0.4,0.3c-0.2,0.1-0.4,0.1-0.6,0.2c-0.3,0-0.5,0.1-0.8,0.1c-0.3,0-0.7,0-1.2,0
		c-0.3,0-0.6,0-0.8,0c-0.2,0-0.4,0-0.6,0c-0.2,0-0.3-0.1-0.5-0.1c-0.1,0-0.2-0.1-0.3-0.1c-0.1-0.1-0.2-0.1-0.2-0.2
		c0-0.1-0.1-0.2-0.1-0.3c0-0.1,0-0.2,0-0.4c0-0.1,0.1-0.3,0.1-0.5h1.6c0,0.1,0,0.1,0,0.2c0,0,0.1,0.1,0.1,0.1c0.1,0,0.2,0,0.4,0.1
		c0.2,0,0.4,0,0.7,0c0,0,0.1,0,0.2,0c0.5,0,0.8,0,0.9,0c0.1,0,0.2-0.1,0.2-0.2c0-0.1,0-0.1-0.1-0.1c-0.1,0-0.3,0-0.6-0.1
		c-0.2,0-0.4,0-0.6,0c-0.3,0-0.4,0-0.6-0.1c-0.1,0-0.3,0-0.5-0.1c-0.2,0-0.3,0-0.4-0.1c-0.1,0-0.2-0.1-0.3-0.1
		c-0.1,0-0.2-0.1-0.3-0.1c-0.1,0-0.1-0.1-0.2-0.2c-0.1-0.1-0.1-0.1-0.1-0.2c0-0.1,0-0.2,0-0.3c0-0.1,0-0.2,0.1-0.3
		c0-0.2,0.1-0.3,0.1-0.4c0.1-0.1,0.1-0.2,0.2-0.3c0.1-0.1,0.1-0.2,0.2-0.3C44.7,7,44.8,7,44.9,6.9c0.1-0.1,0.2-0.1,0.3-0.1
		c0.1,0,0.3-0.1,0.4-0.1c0.1,0,0.3,0,0.5-0.1c0.2,0,0.4,0,0.5,0C46.9,6.6,47.1,6.6,47.3,6.6z"/>
	<polygon class="st0" points="32.7,8.1 41.1,8.1 31.9,11.9 38.7,5.9 39,11.6 	"/>
	<polygon class="st0" points="33.6,10.2 33.9,9 32.6,8.3 31.8,11.2 32.4,11.2 	"/>
	<path class="st0" d="M42.6,9.8c0.6-0.3,1.1-0.8,1.3-1.5c0.1-0.2,0.1-0.4,0.1-0.6c0-0.2,0-0.3-0.1-0.4c-0.1-0.1-0.1-0.2-0.2-0.3
		c-0.1-0.1-0.2-0.1-0.3-0.2c-0.1,0-0.2-0.1-0.4-0.1c-0.1,0-0.2,0-0.3,0c-0.1,0-0.2,0-0.2,0h-3.4L39,7.9h1.1h1.3h0.3
		c0.4,0,0.6,0.1,0.5,0.4c-0.1,0.3-0.3,0.4-0.7,0.4h-1.6L39,9.1l0.2,2h0l0.3-1.1h1.4l0.5,1.1l1.8,0L42.6,9.8z"/>
	<path class="st0" d="M28.3,6.6c0.4,0,0.8,0,1,0c0.3,0,0.5,0.1,0.8,0.1c0.2,0.1,0.4,0.1,0.5,0.2c0.1,0.1,0.2,0.2,0.3,0.3
		c0.1,0.1,0.1,0.3,0.1,0.4c0,0.2,0,0.4-0.1,0.6h-1.6c0-0.1,0-0.1,0-0.2c0,0-0.1-0.1-0.1-0.1c-0.1,0-0.2-0.1-0.4-0.1
		c-0.2,0-0.4,0-0.7,0c-0.4,0-0.7,0-0.9,0c-0.2,0-0.3,0-0.4,0.1c-0.1,0-0.1,0.1-0.1,0.1c0,0.1,0,0.1,0.1,0.1c0.1,0,0.4,0.1,1,0.1
		c0,0,0,0,0,0C29,8.4,29.7,8.5,30,8.6c0.4,0.1,0.6,0.3,0.7,0.5c0,0.2,0,0.4-0.1,0.7c-0.1,0.2-0.1,0.4-0.2,0.5
		c-0.1,0.1-0.2,0.3-0.3,0.4c-0.1,0.1-0.2,0.2-0.4,0.3c-0.2,0.1-0.4,0.1-0.6,0.2c-0.3,0-0.5,0.1-0.8,0.1c-0.3,0-0.7,0-1.2,0
		c-0.3,0-0.6,0-0.8,0c-0.2,0-0.4,0-0.6,0c-0.2,0-0.3-0.1-0.5-0.1c-0.1,0-0.2-0.1-0.3-0.1c-0.1-0.1-0.2-0.1-0.2-0.2
		c0-0.1-0.1-0.2-0.1-0.3c0-0.1,0-0.2,0-0.4c0-0.1,0.1-0.3,0.1-0.5h1.6c0,0.1,0,0.1,0,0.2c0,0,0.1,0.1,0.1,0.1c0.1,0,0.2,0,0.4,0.1
		c0.2,0,0.4,0,0.7,0c0,0,0.1,0,0.2,0c0.5,0,0.8,0,0.9,0c0.1,0,0.2-0.1,0.2-0.2c0-0.1,0-0.1-0.1-0.1c-0.1,0-0.3,0-0.6-0.1
		c-0.2,0-0.4,0-0.6,0c-0.3,0-0.4,0-0.6-0.1c-0.1,0-0.3,0-0.5-0.1c-0.2,0-0.3,0-0.4-0.1c-0.1,0-0.2-0.1-0.3-0.1
		c-0.1,0-0.2-0.1-0.3-0.1c-0.1,0-0.1-0.1-0.2-0.2c-0.1-0.1-0.1-0.1-0.1-0.2c0-0.1,0-0.2,0-0.3c0-0.1,0-0.2,0.1-0.3
		c0-0.2,0.1-0.3,0.1-0.4c0.1-0.1,0.1-0.2,0.2-0.3c0.1-0.1,0.1-0.2,0.2-0.3C25.7,7,25.8,7,25.9,6.9c0.1-0.1,0.2-0.1,0.3-0.1
		c0.1,0,0.3-0.1,0.4-0.1c0.1,0,0.3,0,0.5-0.1c0.2,0,0.4,0,0.5,0C27.9,6.6,28.1,6.6,28.3,6.6z"/>
	<path class="st0" d="M30.3,6.6c0.2,0.1,0.4,0.1,0.5,0.2C30.9,6.9,31,7,31.1,7.1c0.1,0.1,0.1,0.3,0.1,0.4c0,0.1,0,0.2-0.1,0.4h5
		l0.4-0.3l1.1-1H30.3z"/>
	<path class="st0" d="M49.9,6.8c0,0-5.8-2.6-12.8-2.3c-7,0.3-18.8,1.1-24.4-0.9c0,0,6.8,0.7,17.4,0.3S46.5,4.1,49.9,6.8z"/>
	<path class="st0" d="M21.1,5.5c0,0-3.9,0.5-5.8,0.1C13.5,5.3,11,5,8.4,5.7s-7.3,0-7.3,0s4.1-0.9,10-3.3s11.6-2.9,16.3-1.7
		S32.5,3,35,3.1c0,0-1.8,0.5-5.9-0.9S20.4,1,16.9,1.9S7.1,5,4.8,5.3c0,0,2.7,0,5.2-0.7S15.7,5.6,21.1,5.5z"/>
</g>
</svg>
