<?xml version="1.0" encoding="utf-8"?>
<!-- Generator: Adobe Illustrator 23.0.0, SVG Export Plug-In . SVG Version: 6.00 Build 0)  -->
<svg version="1.1" id="Layer_1" xmlns="http://www.w3.org/2000/svg" xmlns:xlink="http://www.w3.org/1999/xlink" x="0px" y="0px"
	 viewBox="0 0 50 50" style="enable-background:new 0 0 50 50;" xml:space="preserve">
<style type="text/css">
	.st0{fill:#020202;}
	.st1{fill:#EC1E24;}
</style>
<g>
	<g>
		<path class="st0" d="M3,18.6h6.7c0.2,0,0.3,0,0.5,0c0.2,0,0.4,0,0.6,0.1c0.3,0,0.5,0.1,0.7,0.2c0.2,0.1,0.4,0.2,0.6,0.4
			c0.2,0.2,0.4,0.4,0.5,0.6c0.1,0.2,0.2,0.5,0.2,0.9c0,0.4,0,0.8-0.1,1.2c-0.4,1.4-1.2,2.5-2.5,3.1l1.2,2.7l-3.5,0l-1-2.1H4.2
			l-0.5,2.1h-3L3,18.6z M8.3,22.9c0.8,0,1.2-0.3,1.3-0.9c0.1-0.5-0.2-0.8-1-0.8H5.3l-0.4,1.6H8.3z"/>
		<path class="st0" d="M20.2,18.4c0.8,0,1.5,0,2.1,0.1c0.6,0.1,1.2,0.2,1.6,0.5c0.5,0.2,0.8,0.5,1.1,0.8c0.3,0.3,0.4,0.8,0.5,1.3
			c0.1,0.5,0,1.2-0.2,1.9c-0.2,0.7-0.4,1.3-0.7,1.8c-0.3,0.5-0.7,1-1.1,1.3c-0.4,0.4-0.9,0.6-1.5,0.9c-0.6,0.2-1.2,0.4-1.9,0.5
			c-0.7,0.1-1.4,0.1-2.3,0.1c-2.1,0-3.6-0.4-4.4-1.2c-0.8-0.8-1-2-0.5-3.6c0.4-1.5,1.2-2.6,2.4-3.4C16.6,18.8,18.2,18.4,20.2,18.4z
			 M18.6,25.3c0.9,0,1.7-0.2,2.3-0.6c0.6-0.4,1-0.9,1.2-1.7c0.2-0.7,0.1-1.3-0.4-1.7c-0.4-0.4-1.1-0.6-2-0.6c-0.5,0-0.9,0-1.3,0.1
			c-0.4,0.1-0.7,0.2-1,0.4c-0.3,0.2-0.5,0.4-0.7,0.7c-0.2,0.3-0.3,0.6-0.4,0.9c-0.2,0.7-0.1,1.2,0.3,1.6
			C17,25.1,17.7,25.3,18.6,25.3z"/>
		<path class="st0" d="M34.8,18.5l1.7,9H33l-0.3-1.5h-4.5l-1.1,1.5h-3.5l6.4-9H34.8z M30,23.4h2.3l-0.6-2.4L30,23.4z"/>
		<path class="st0" d="M42.8,27.6h-6.3l2.4-9h6.2c0.6,0,1.1,0,1.5,0.1c0.4,0.1,0.9,0.2,1.3,0.4c0.4,0.2,0.7,0.5,1,0.8
			c0.2,0.3,0.4,0.8,0.4,1.3c0,0.6,0,1.2-0.2,2c-0.2,0.7-0.4,1.3-0.8,1.8c-0.3,0.5-0.7,1-1.2,1.3c-0.4,0.3-0.9,0.6-1.4,0.8
			c-0.5,0.2-1,0.4-1.5,0.5C43.7,27.5,43.2,27.6,42.8,27.6z M43.2,25.1c0.5,0,0.9-0.1,1.3-0.3c0.4-0.2,0.7-0.4,0.9-0.7
			c0.2-0.3,0.4-0.6,0.5-1c0.2-0.6,0.1-1.1-0.1-1.5C45.5,21.2,45,21,44.3,21h-3l-1.1,4.1H43.2z"/>
	</g>
	<g>
		<path class="st1" d="M7.2,30c0.8,0,1.5,0,2.1,0.1c0.6,0,1.1,0.1,1.5,0.2c0.4,0.1,0.7,0.2,1,0.4c0.2,0.2,0.4,0.4,0.5,0.6
			c0.1,0.3,0.2,0.5,0.1,0.9c0,0.3-0.1,0.7-0.2,1.2H9c0-0.1,0-0.2,0-0.3c0-0.1-0.1-0.2-0.3-0.2c-0.1-0.1-0.4-0.1-0.7-0.2
			c-0.3,0-0.8,0-1.4,0c-0.8,0-1.3,0-1.7,0.1c-0.4,0-0.6,0.1-0.7,0.1C4.1,32.8,4,32.9,4,33c0,0.1,0.1,0.2,0.3,0.2
			c0.2,0,0.9,0.1,2,0.2c0,0,0,0,0,0c2.2,0.2,3.6,0.3,4.2,0.5c0.8,0.2,1.2,0.5,1.3,1c0.1,0.3,0,0.8-0.1,1.3c-0.1,0.4-0.2,0.8-0.4,1
			c-0.1,0.3-0.3,0.5-0.5,0.7c-0.2,0.2-0.5,0.4-0.8,0.5c-0.3,0.1-0.7,0.2-1.2,0.3C8.4,38.9,7.8,39,7.2,39c-0.6,0-1.4,0-2.3,0
			c-0.6,0-1.2,0-1.6,0C2.8,39,2.4,39,2,39c-0.4,0-0.7-0.1-0.9-0.2c-0.2-0.1-0.4-0.2-0.6-0.3c-0.2-0.1-0.3-0.3-0.4-0.4
			C0,38,0,37.8,0,37.6c0-0.2,0-0.5,0-0.7c0-0.2,0.1-0.5,0.2-0.9h3.1c0,0.1,0,0.3,0,0.3c0,0.1,0.1,0.1,0.3,0.2
			c0.2,0.1,0.4,0.1,0.7,0.1c0.3,0,0.8,0,1.4,0c0.1,0,0.2,0,0.3,0c1,0,1.6,0,1.8-0.1c0.2,0,0.4-0.1,0.4-0.3c0-0.1,0-0.2-0.2-0.2
			c-0.1,0-0.5-0.1-1.2-0.1c-0.5,0-0.9-0.1-1.2-0.1c-0.5,0-0.9-0.1-1.1-0.1c-0.3,0-0.6-0.1-1-0.1c-0.4,0-0.7-0.1-0.9-0.1
			c-0.2,0-0.4-0.1-0.7-0.2c-0.3-0.1-0.5-0.2-0.6-0.3c-0.1-0.1-0.2-0.2-0.4-0.3c-0.1-0.1-0.2-0.3-0.2-0.4c0-0.2,0-0.4,0-0.6
			c0-0.2,0-0.4,0.1-0.7c0.1-0.3,0.2-0.6,0.3-0.8c0.1-0.2,0.2-0.5,0.4-0.6c0.1-0.2,0.3-0.4,0.5-0.5c0.2-0.1,0.4-0.3,0.5-0.4
			c0.2-0.1,0.4-0.2,0.7-0.3c0.3-0.1,0.5-0.1,0.8-0.2c0.3,0,0.6-0.1,0.9-0.1c0.4,0,0.7,0,1.1-0.1C6.3,30,6.8,30,7.2,30z"/>
		<path class="st1" d="M44.9,30c0.8,0,1.5,0,2.1,0.1c0.6,0,1.1,0.1,1.5,0.2c0.4,0.1,0.7,0.2,1,0.4c0.2,0.2,0.4,0.4,0.5,0.6
			c0.1,0.3,0.1,0.5,0.1,0.9c0,0.3-0.1,0.7-0.2,1.2h-3.2c0-0.1,0-0.2,0-0.3c0-0.1-0.1-0.2-0.3-0.2c-0.1-0.1-0.4-0.1-0.7-0.2
			c-0.3,0-0.8,0-1.4,0c-0.8,0-1.3,0-1.7,0.1c-0.4,0-0.6,0.1-0.7,0.1c-0.1,0.1-0.2,0.1-0.2,0.3c0,0.1,0.1,0.2,0.3,0.2
			c0.2,0,0.9,0.1,2,0.2c0,0,0,0,0,0c2.2,0.2,3.6,0.3,4.2,0.5c0.8,0.2,1.2,0.5,1.3,1c0.1,0.3,0,0.8-0.1,1.3c-0.1,0.4-0.2,0.8-0.4,1
			c-0.1,0.3-0.3,0.5-0.5,0.7c-0.2,0.2-0.5,0.4-0.8,0.5c-0.3,0.1-0.7,0.2-1.2,0.3c-0.5,0.1-1.1,0.1-1.7,0.2c-0.6,0-1.4,0-2.3,0
			c-0.6,0-1.2,0-1.6,0c-0.4,0-0.9,0-1.2-0.1c-0.4,0-0.7-0.1-0.9-0.2c-0.2-0.1-0.4-0.2-0.6-0.3c-0.2-0.1-0.3-0.3-0.4-0.4
			c-0.1-0.1-0.1-0.3-0.1-0.5c0-0.2,0-0.5,0-0.7c0-0.2,0.1-0.5,0.2-0.9h3.1c0,0.1,0,0.3,0,0.3c0,0.1,0.1,0.1,0.3,0.2
			c0.2,0.1,0.4,0.1,0.7,0.1c0.3,0,0.8,0,1.4,0c0.1,0,0.2,0,0.3,0c1,0,1.6,0,1.8-0.1c0.2,0,0.4-0.1,0.4-0.3c0-0.1,0-0.2-0.2-0.2
			c-0.1,0-0.5-0.1-1.2-0.1c-0.5,0-0.9-0.1-1.2-0.1c-0.5,0-0.9-0.1-1.1-0.1c-0.3,0-0.6-0.1-1-0.1c-0.4,0-0.7-0.1-0.9-0.1
			c-0.2,0-0.4-0.1-0.7-0.2c-0.3-0.1-0.5-0.2-0.6-0.3c-0.1-0.1-0.2-0.2-0.4-0.3c-0.1-0.1-0.2-0.3-0.2-0.4c0-0.2,0-0.4,0-0.6
			c0-0.2,0-0.4,0.1-0.7c0.1-0.3,0.2-0.6,0.3-0.8c0.1-0.2,0.2-0.5,0.4-0.6c0.1-0.2,0.3-0.4,0.5-0.5c0.2-0.1,0.4-0.3,0.5-0.4
			c0.2-0.1,0.4-0.2,0.7-0.3c0.3-0.1,0.5-0.1,0.8-0.2c0.3,0,0.6-0.1,0.9-0.1c0.4,0,0.7,0,1.1-0.1C44,30,44.4,30,44.9,30z"/>
		<polygon class="st1" points="15.9,33 32.6,33 14.4,40.4 27.8,28.7 28.4,40 		"/>
		<polygon class="st1" points="17.7,37.2 18.3,34.8 15.7,33.3 14.1,39.1 15.4,39.1 		"/>
		<path class="st1" d="M35.5,36.4c1.3-0.6,2.1-1.6,2.5-3.1c0.1-0.4,0.2-0.8,0.2-1.2c0-0.4-0.1-0.6-0.2-0.9c-0.1-0.2-0.3-0.4-0.5-0.6
			c-0.2-0.2-0.4-0.3-0.6-0.4c-0.2-0.1-0.4-0.1-0.7-0.2c-0.3,0-0.5-0.1-0.6-0.1c-0.2,0-0.3,0-0.5,0h-6.8l0.1,2.7h2.2h2.7h0.7
			c0.8,0,1.1,0.3,1,0.8c-0.2,0.6-0.6,0.9-1.4,0.9h-3.3L28.5,35l0.4,4.1h0l0.6-2.1h2.7l1,2.1l3.5,0L35.5,36.4z"/>
		<path class="st1" d="M7.2,30c0.8,0,1.5,0,2.1,0.1c0.6,0,1.1,0.1,1.5,0.2c0.4,0.1,0.7,0.2,1,0.4c0.2,0.2,0.4,0.4,0.5,0.6
			c0.1,0.3,0.2,0.5,0.1,0.9c0,0.3-0.1,0.7-0.2,1.2H9c0-0.1,0-0.2,0-0.3c0-0.1-0.1-0.2-0.3-0.2c-0.1-0.1-0.4-0.1-0.7-0.2
			c-0.3,0-0.8,0-1.4,0c-0.8,0-1.3,0-1.7,0.1c-0.4,0-0.6,0.1-0.7,0.1C4.1,32.8,4,32.9,4,33c0,0.1,0.1,0.2,0.3,0.2
			c0.2,0,0.9,0.1,2,0.2c0,0,0,0,0,0c2.2,0.2,3.6,0.3,4.2,0.5c0.8,0.2,1.2,0.5,1.3,1c0.1,0.3,0,0.8-0.1,1.3c-0.1,0.4-0.2,0.8-0.4,1
			c-0.1,0.3-0.3,0.5-0.5,0.7c-0.2,0.2-0.5,0.4-0.8,0.5c-0.3,0.1-0.7,0.2-1.2,0.3C8.4,38.9,7.8,39,7.2,39c-0.6,0-1.4,0-2.3,0
			c-0.6,0-1.2,0-1.6,0C2.8,39,2.4,39,2,39c-0.4,0-0.7-0.1-0.9-0.2c-0.2-0.1-0.4-0.2-0.6-0.3c-0.2-0.1-0.3-0.3-0.4-0.4
			C0,38,0,37.8,0,37.6c0-0.2,0-0.5,0-0.7c0-0.2,0.1-0.5,0.2-0.9h3.1c0,0.1,0,0.3,0,0.3c0,0.1,0.1,0.1,0.3,0.2
			c0.2,0.1,0.4,0.1,0.7,0.1c0.3,0,0.8,0,1.4,0c0.1,0,0.2,0,0.3,0c1,0,1.6,0,1.8-0.1c0.2,0,0.4-0.1,0.4-0.3c0-0.1,0-0.2-0.2-0.2
			c-0.1,0-0.5-0.1-1.2-0.1c-0.5,0-0.9-0.1-1.2-0.1c-0.5,0-0.9-0.1-1.1-0.1c-0.3,0-0.6-0.1-1-0.1c-0.4,0-0.7-0.1-0.9-0.1
			c-0.2,0-0.4-0.1-0.7-0.2c-0.3-0.1-0.5-0.2-0.6-0.3c-0.1-0.1-0.2-0.2-0.4-0.3c-0.1-0.1-0.2-0.3-0.2-0.4c0-0.2,0-0.4,0-0.6
			c0-0.2,0-0.4,0.1-0.7c0.1-0.3,0.2-0.6,0.3-0.8c0.1-0.2,0.2-0.5,0.4-0.6c0.1-0.2,0.3-0.4,0.5-0.5c0.2-0.1,0.4-0.3,0.5-0.4
			c0.2-0.1,0.4-0.2,0.7-0.3c0.3-0.1,0.5-0.1,0.8-0.2c0.3,0,0.6-0.1,0.9-0.1c0.4,0,0.7,0,1.1-0.1C6.3,30,6.8,30,7.2,30z"/>
		<path class="st1" d="M11.2,30.1c0.4,0.1,0.7,0.2,0.9,0.4c0.2,0.2,0.4,0.4,0.5,0.6c0.1,0.3,0.2,0.6,0.1,0.9c0,0.2-0.1,0.5-0.1,0.7
			h10l0.7-0.6l2.2-2H11.2z"/>
	</g>
	<g>
		<path class="st1" d="M50,17.9c0,0-5.9-3.3-13.1-2.9s-19.2,1.4-25-1.1c0,0,7,0.9,17.9,0.4C40.6,13.7,46.5,14.5,50,17.9z"/>
		<path class="st1" d="M20.5,16.3c0,0-3.9,0.6-5.9,0.2s-4.5-0.8-7.2,0.1c-2.7,0.9-7.5,0-7.5,0s4.2-1.2,10.3-4.1s11.9-3.7,16.6-2.1
			s5.2,2.8,7.9,2.9c0,0-1.9,0.7-6.1-1.1s-8.9-1.5-12.5-0.4s-10,3.9-12.4,4.3c0,0,2.8-0.1,5.4-0.9C11.7,14.4,14.9,16.5,20.5,16.3z"/>
	</g>
</g>
</svg>
